<svg xmlns="http://www.w3.org/2000/svg" viewBox="0 0 1000 1000"><title>Steel</title><path d="M302.44,292.45l-72,89.76L255,371.95a13.7,13.7,0,0,1,15.23,3.2L477.87,593.83,313.94,328.47a75.13,75.13,0,0,1-10.43-28.7Z"/><path d="M588.1,493.79c0,21.21-17.69,38.41-39.54,38.42S509,515,509,493.83v0c0-21.21,17.71-38.4,39.57-38.4s39.57,17.19,39.57,38.4h0Z"/><path d="M491.63,251C372,255.25,272.3,355.75,258.88,474l72.32,50.88c-9.35-59,45-163.05,162.26-159,89.4,3,151.75,65.67,159.86,154.76,13.33,146.46-98.23,208.51-173.78,215C649.31,735.58,738.44,598.2,741,494,744.56,352.81,630,246,491.63,251Z"/><path d="M467.53,471.37,402.65,162.58c-1.8-8.38-.65-10.42,3.25-18.05l17-33.2-105.8,51.41,8.46,8.35A79.23,79.23,0,0,1,342,194.75Z"/></svg>